<?xml version="1.0" encoding="UTF-8"?>
<svg version="1.1" xmlns="http://www.w3.org/2000/svg" width="500" height="500">
<path d="M0 0 C165 0 330 0 500 0 C500 165 500 330 500 500 C335 500 170 500 0 500 C0 335 0 170 0 0 Z " fill="#000C16" transform="translate(0,0)"/>
<path d="M0 0 C2.52403577 2.19346097 4.85733234 4.46681209 7.16015625 6.890625 C7.84464844 7.59316406 8.52914062 8.29570313 9.234375 9.01953125 C25.42817112 27.31311233 30.42280727 54.49271486 34.16015625 77.890625 C34.36382812 78.92316406 34.5675 79.95570313 34.77734375 81.01953125 C38.10715055 99.60715141 37.89751628 119.16534963 31.16015625 136.890625 C30.89783203 137.6036377 30.63550781 138.31665039 30.36523438 139.05126953 C22.35667733 160.55626175 10.01853484 179.01759315 -3.46484375 197.453125 C-4.06893066 198.28102539 -4.67301758 199.10892578 -5.29541016 199.96191406 C-6.14111572 201.10418457 -6.14111572 201.10418457 -7.00390625 202.26953125 C-7.5035791 202.9457251 -8.00325195 203.62191895 -8.51806641 204.31860352 C-9.83984375 205.890625 -9.83984375 205.890625 -11.83984375 206.890625 C-9.53332714 199.73967707 -6.88854808 192.76187609 -4.15234375 185.765625 C4.34491088 163.80891889 11.80157398 142.52255737 15.41015625 119.203125 C15.6736084 117.52814941 15.6736084 117.52814941 15.94238281 115.81933594 C19.7826916 89.48024842 11.05062005 69.91791841 -2.5390625 48.0168457 C-7.28357383 40.35354507 -11.7303259 32.7122451 -13.83984375 23.890625 C-27.75401279 23.0387371 -39.35803882 34.06260161 -49.64990234 42.27099609 C-60.78777747 51.02050016 -60.78777747 51.02050016 -66.77734375 50.765625 C-68.83984375 49.890625 -68.83984375 49.890625 -69.83984375 47.890625 C-74.33049085 47.32929411 -76.92153872 47.55129006 -80.65234375 50.203125 C-94.94190032 62.11564252 -105.13771034 78.63443605 -113.83984375 94.890625 C-116.66278636 92.19041902 -117.77550462 90.8581866 -118.04296875 86.8359375 C-118.35448588 61.4472917 -105.84510927 36.40746967 -88.83984375 17.890625 C-88.36708008 17.37016602 -87.89431641 16.84970703 -87.40722656 16.31347656 C-64.45351661 -8.69360041 -29.85629617 -22.17661613 0 0 Z " fill="#FCFCFC" transform="translate(297.83984375,101.109375)"/>
<path d="M0 0 C2.66121727 0.99795648 4.44824303 2.540611 6.09375 4.84765625 C7.70059331 8.42585825 7.61031854 11.9139241 6.9375 15.7265625 C5.4375 18.7890625 5.4375 18.7890625 3.9375 20.7265625 C6.77717231 20.7265625 9.17485711 20.32389069 11.9375 19.7265625 C11.9375 20.3865625 11.9375 21.0465625 11.9375 21.7265625 C5.37149908 25.6409092 -0.2463655 27.99668436 -8.0625 26.7265625 C-11.38864799 24.10810557 -14.68679728 21.02009652 -15.3984375 16.67578125 C-15.51825018 9.7386271 -13.5317095 6.40153946 -8.8125 1.2890625 C-5.50510473 -0.59013936 -3.68053217 -0.7110119 0 0 Z " fill="#F9F9F9" transform="translate(270.0625,356.2734375)"/>
</svg>
